<svg width="24" height="24" viewBox="0 0 24 24" fill="none" xmlns="http://www.w3.org/2000/svg">
<path fill-rule="evenodd" clip-rule="evenodd" d="M12 23C5.92487 23 1 18.0751 1 12C1 5.92487 5.92487 1 12 1C18.0751 1 23 5.92487 23 12C23 18.0751 18.0751 23 12 23ZM12 21C16.9706 21 21 16.9706 21 12C21 7.02944 16.9706 3 12 3C7.02944 3 3 7.02944 3 12C3 16.9706 7.02944 21 12 21ZM7.40744 16.8199C6.96526 16.489 6.87506 15.8623 7.20596 15.4201C7.53687 14.9779 8.16357 14.8877 8.60575 15.2186C10.4286 16.5828 13.6282 16.5915 15.3919 15.2281C15.8288 14.8903 16.4569 14.9707 16.7947 15.4077C17.1324 15.8446 17.052 16.4727 16.6151 16.8105C14.1333 18.7289 9.94325 18.7176 7.40744 16.8199ZM8.5 11C7.67157 11 7 10.3284 7 9.5C7 8.67157 7.67157 8 8.5 8C9.32843 8 10 8.67157 10 9.5C10 10.3284 9.32843 11 8.5 11ZM15.5 11C14.6716 11 14 10.3284 14 9.5C14 8.67157 14.6716 8 15.5 8C16.3284 8 17 8.67157 17 9.5C17 10.3284 16.3284 11 15.5 11Z" fill="#0073FF"/>
</svg>
