<svg width="80" height="80" viewBox="0 0 80 80" fill="none" xmlns="http://www.w3.org/2000/svg">
<path d="M78.6667 51.3331C79.403 51.3331 80 50.7361 80 49.9998V39.3331C80 38.5968 79.403 37.9998 78.6667 37.9998H61.8853L70.276 29.6091C70.7965 29.0885 70.7965 28.2445 70.276 27.7238L62.9907 20.4385C62.47 19.918 61.626 19.918 61.1053 20.4385C59.0222 22.5216 55.6445 22.5216 53.5613 20.4385C51.4782 18.3553 51.4782 14.9776 53.5613 12.8945C54.0818 12.3738 54.0818 11.5298 53.5613 11.0091L47.6093 5.05712C47.0887 4.53662 46.2447 4.53662 45.724 5.05712L12.7813 37.9998H1.33333C0.597 37.9998 0 38.5968 0 39.3331V49.9998C0 50.7361 0.597 51.3331 1.33333 51.3331C4.27883 51.3331 6.66667 53.721 6.66667 56.6665C6.66667 59.612 4.27883 61.9998 1.33333 61.9998C0.597 61.9998 0 62.5968 0 63.3331V73.9998C0 74.7361 0.597 75.3331 1.33333 75.3331H78.6667C79.403 75.3331 80 74.7361 80 73.9998V63.3331C80 62.5968 79.403 61.9998 78.6667 61.9998C75.7212 61.9998 73.3333 59.612 73.3333 56.6665C73.3333 53.721 75.7212 51.3331 78.6667 51.3331ZM46.6667 7.88512L50.8107 12.0291C48.2422 15.6241 49.0743 20.6206 52.6693 23.1891C55.4512 25.1768 59.1888 25.1768 61.9707 23.1891L67.448 28.6665L58.1147 37.9998H53.8853L56.9427 34.9425C57.4632 34.4218 57.4632 33.5778 56.9427 33.0571L42.276 18.3905C41.7553 17.87 40.9113 17.87 40.3907 18.3905L20.7813 37.9998H16.552L46.6667 7.88512ZM50.1147 37.9998H24.552L41.3333 21.2185L54.1147 33.9998L50.1147 37.9998ZM70.77 57.9925C71.3353 61.3555 73.9703 63.9905 77.3333 64.5558V72.6665H66.6667V67.3331H64V72.6665H16V71.3331H13.3333V72.6665H2.66667V64.5558C7.02383 63.8235 9.96233 59.6976 9.23 55.3405C8.66467 51.9775 6.02983 49.3425 2.66667 48.7771V40.6665H13.3333V44.6665H16V40.6665H77.3333V48.7771C72.9762 49.5095 70.0377 53.6355 70.77 57.9925Z" fill="#FF974A"/>
<path d="M66.6667 43.3331H64V48.6665H66.6667V43.3331Z" fill="#FF974A"/>
<path d="M66.6667 51.3331H64V56.6665H66.6667V51.3331Z" fill="#FF974A"/>
<path d="M66.6667 59.3331H64V64.6665H66.6667V59.3331Z" fill="#FF974A"/>
<path d="M16.0002 47.3331H13.3335V52.6665H16.0002V47.3331Z" fill="#FF974A"/>
<path d="M16.0002 55.3331H13.3335V60.6665H16.0002V55.3331Z" fill="#FF974A"/>
<path d="M16.0002 63.3331H13.3335V68.6665H16.0002V63.3331Z" fill="#FF974A"/>
<path d="M58.6667 47.3331C57.1938 47.3331 56 46.1393 56 44.6665C56 43.9301 55.403 43.3331 54.6667 43.3331H25.3333C24.597 43.3331 24 43.9301 24 44.6665C24 46.1393 22.8062 47.3331 21.3333 47.3331C20.597 47.3331 20 47.9301 20 48.6665V64.6665C20 65.4028 20.597 65.9998 21.3333 65.9998C22.8062 65.9998 24 67.1936 24 68.6665C24 69.4028 24.597 69.9998 25.3333 69.9998H54.6667C55.403 69.9998 56 69.4028 56 68.6665C56 67.1936 57.1938 65.9998 58.6667 65.9998C59.403 65.9998 60 65.4028 60 64.6665V48.6665C60 47.9301 59.403 47.3331 58.6667 47.3331ZM57.3333 63.5011C55.4562 63.9901 53.9903 65.456 53.5013 67.3331H26.4987C26.0097 65.456 24.5438 63.9901 22.6667 63.5011V49.8318C24.5438 49.3428 26.0097 47.877 26.4987 45.9998H53.5013C53.9903 47.877 55.4562 49.3428 57.3333 49.8318V63.5011Z" fill="#FF974A"/>
</svg>
