<svg width="80" height="80" viewBox="0 0 80 80" fill="none" xmlns="http://www.w3.org/2000/svg">
<path fill-rule="evenodd" clip-rule="evenodd" d="M40.0002 23.3333C34.4773 23.3333 30.0002 18.8561 30.0002 13.3333C30.0002 7.8104 34.4773 3.33325 40.0002 3.33325C45.523 3.33325 50.0002 7.8104 50.0002 13.3333C50.0002 18.8561 45.523 23.3333 40.0002 23.3333ZM40.0002 16.6666C41.8411 16.6666 43.3335 15.1742 43.3335 13.3333C43.3335 11.4923 41.8411 9.99992 40.0002 9.99992C38.1592 9.99992 36.6668 11.4923 36.6668 13.3333C36.6668 15.1742 38.1592 16.6666 40.0002 16.6666ZM36.6668 23.3333H43.3335C48.8563 23.3333 53.3335 27.8104 53.3335 33.3333V36.6666C53.3335 42.1894 48.8563 46.6666 43.3335 46.6666H36.6668C31.144 46.6666 26.6668 42.1894 26.6668 36.6666V33.3333C26.6668 27.8104 31.144 23.3333 36.6668 23.3333ZM36.6668 29.9999C34.8259 29.9999 33.3335 31.4923 33.3335 33.3333V36.6666C33.3335 38.5075 34.8259 39.9999 36.6668 39.9999H43.3335C45.1744 39.9999 46.6668 38.5075 46.6668 36.6666V33.3333C46.6668 31.4923 45.1744 29.9999 43.3335 29.9999H36.6668ZM63.3335 53.3333C57.8107 53.3333 53.3335 48.8561 53.3335 43.3333C53.3335 37.8104 57.8107 33.3333 63.3335 33.3333C68.8563 33.3333 73.3335 37.8104 73.3335 43.3333C73.3335 48.8561 68.8563 53.3333 63.3335 53.3333ZM63.3335 46.6666C65.1744 46.6666 66.6668 45.1742 66.6668 43.3333C66.6668 41.4923 65.1744 39.9999 63.3335 39.9999C61.4925 39.9999 60.0002 41.4923 60.0002 43.3333C60.0002 45.1742 61.4925 46.6666 63.3335 46.6666ZM60.0002 53.3333H66.6668C72.1897 53.3333 76.6668 57.8104 76.6668 63.3333V66.6666C76.6668 72.1894 72.1897 76.6666 66.6668 76.6666H60.0002C54.4773 76.6666 50.0002 72.1894 50.0002 66.6666V63.3333C50.0002 57.8104 54.4773 53.3333 60.0002 53.3333ZM60.0002 59.9999C58.1592 59.9999 56.6668 61.4923 56.6668 63.3333V66.6666C56.6668 68.5075 58.1592 69.9999 60.0002 69.9999H66.6668C68.5078 69.9999 70.0002 68.5075 70.0002 66.6666V63.3333C70.0002 61.4923 68.5078 59.9999 66.6668 59.9999H60.0002ZM16.6668 53.3333C11.144 53.3333 6.66683 48.8561 6.66683 43.3333C6.66683 37.8104 11.144 33.3333 16.6668 33.3333C22.1897 33.3333 26.6668 37.8104 26.6668 43.3333C26.6668 48.8561 22.1897 53.3333 16.6668 53.3333ZM16.6668 46.6666C18.5078 46.6666 20.0002 45.1742 20.0002 43.3333C20.0002 41.4923 18.5078 39.9999 16.6668 39.9999C14.8259 39.9999 13.3335 41.4923 13.3335 43.3333C13.3335 45.1742 14.8259 46.6666 16.6668 46.6666ZM13.3335 53.3333H20.0002C25.523 53.3333 30.0002 57.8104 30.0002 63.3333V66.6666C30.0002 72.1894 25.523 76.6666 20.0002 76.6666H13.3335C7.81065 76.6666 3.3335 72.1894 3.3335 66.6666V63.3333C3.3335 57.8104 7.81065 53.3333 13.3335 53.3333ZM13.3335 59.9999C11.4925 59.9999 10.0002 61.4923 10.0002 63.3333V66.6666C10.0002 68.5075 11.4925 69.9999 13.3335 69.9999H20.0002C21.8411 69.9999 23.3335 68.5075 23.3335 66.6666V63.3333C23.3335 61.4923 21.8411 59.9999 20.0002 59.9999H13.3335Z" fill="#FF974A"/>
</svg>
