<svg width="70" height="70" viewBox="0 0 70 70" fill="none" xmlns="http://www.w3.org/2000/svg">
<g filter="url(#filter0_d)">
<rect x="15" y="5" width="40" height="40" rx="10" fill="white"/>
</g>
<g clip-path="url(#clip0)">
<path d="M41.1804 34.1745L40.514 27.4595L45 22.4187L38.4078 20.9775L35 15.1533L31.5922 20.9774L25 22.4187L29.486 27.4595L28.8197 34.1745L34.4089 31.7248V33.6644H33.2152V34.8467H36.7797V33.6644H35.5912V31.7248L41.1804 34.1745ZM36.736 30.9357C37.478 30.3981 37.962 29.5253 37.962 28.5411V27.5558H39.3354L39.8043 32.2805L36.736 30.9357ZM27.2265 23.1422L32.3509 22.0218L35 17.4944L37.6491 22.0218L42.7735 23.1422L39.8978 26.3735H37.962V25.3882C37.962 23.7584 36.6361 22.4325 35.0062 22.4325C33.3764 22.4325 32.0505 23.7584 32.0505 25.3882V26.3735H30.1022L27.2265 23.1422ZM30.1957 32.2805L30.6646 27.5558H32.0505V28.5411C32.0505 29.5232 32.5325 30.3945 33.2718 30.9322L30.1957 32.2805ZM33.244 28.7381H34.4151V27.5558H33.2328V26.3735H34.4151V25.1912H33.244C33.3424 24.3057 34.095 23.6148 35.0063 23.6148C35.9176 23.6148 36.6702 24.3057 36.7686 25.1912H35.5974V26.3735H36.7798V27.5558H35.5974V28.7381H36.7686C36.68 29.5355 36.0609 30.175 35.2731 30.2944L34.7305 30.2929C33.9469 30.1701 33.3323 29.5324 33.244 28.7381Z" fill="#0062FF"/>
</g>
<defs>
<filter id="filter0_d" x="0" y="0" width="70" height="70" filterUnits="userSpaceOnUse" color-interpolation-filters="sRGB">
<feFlood flood-opacity="0" result="BackgroundImageFix"/>
<feColorMatrix in="SourceAlpha" type="matrix" values="0 0 0 0 0 0 0 0 0 0 0 0 0 0 0 0 0 0 127 0"/>
<feOffset dy="10"/>
<feGaussianBlur stdDeviation="7.5"/>
<feColorMatrix type="matrix" values="0 0 0 0 0 0 0 0 0 0 0 0 0 0 0 0 0 0 0.05 0"/>
<feBlend mode="normal" in2="BackgroundImageFix" result="effect1_dropShadow"/>
<feBlend mode="normal" in="SourceGraphic" in2="effect1_dropShadow" result="shape"/>
</filter>
<clipPath id="clip0">
<rect width="20" height="20" fill="white" transform="translate(25 15)"/>
</clipPath>
</defs>
</svg>
