<svg width="80" height="80" viewBox="0 0 80 80" fill="none" xmlns="http://www.w3.org/2000/svg">
<g clip-path="url(#clip0)">
<path d="M38.3333 40C33.737 40 30 43.7386 30 48.3333C30 52.928 33.737 56.6666 38.3333 56.6666C42.9297 56.6666 46.6666 52.928 46.6666 48.3333C46.6666 43.7386 42.9297 40 38.3333 40ZM38.3333 53.3333C35.5761 53.3333 33.3333 51.0905 33.3333 48.3333C33.3333 45.5761 35.5761 43.3333 38.3333 43.3333C41.0905 43.3333 43.3333 45.5761 43.3333 48.3333C43.3333 51.0905 41.0905 53.3333 38.3333 53.3333Z" fill="#FF974A"/>
<path d="M79.5117 12.155L74.5117 7.155C73.9778 6.62281 73.1542 6.51047 72.5066 6.88641L60.8398 13.5531C60.3191 13.8492 60 14.4027 60 15V17.6433L48.8314 28.8103C46.3705 27.4073 43.9128 26.67 41.6667 26.6667C33.8184 26.6667 31.8783 31.4909 30.4623 35.0147C29.1439 38.2894 28.3041 39.9984 25 40C21.8306 40 19.0661 40.4877 16.6667 41.3553V22.7844L27.3805 13.2611C30.717 12.8995 33.3334 10.0989 33.3334 6.66672C33.3333 2.98984 30.3419 0 26.6667 0C23.2366 0 20.4352 2.61437 20.0725 5.95094L7.08672 20.5598C6.50078 21.2191 6.53 22.2216 7.15516 22.845L7.62453 23.3144C5.12531 25.9839 0 32.9211 0 45V78.3333C0 79.2545 0.745469 80 1.66672 80C2.58797 80 3.33344 79.2545 3.33344 78.3333V45C3.33344 34.0239 7.88172 27.9216 9.98406 25.6741L10.4884 26.1784C10.8139 26.5023 11.2405 26.6667 11.6669 26.6667C12.0608 26.6667 12.458 26.5267 12.7736 26.2452L13.3334 25.7475V43.017C9.04219 45.8025 6.66672 50.4242 6.66672 56.6667C6.66672 61.8669 9.35375 67.2902 13.3334 71.6073V76.6667H11.6667C10.7455 76.6667 10 77.4122 10 78.3334C10 79.2545 10.7455 80 11.6667 80H18.3334C19.2547 80 20.0002 79.2545 20.0002 78.3333C20.0002 77.412 19.2547 76.6666 18.3334 76.6666H16.6667V74.7128C20.6833 77.9164 25.4272 80 30 80C40.5925 80 46.6667 73.317 46.6667 61.6667C46.6667 58.3627 48.3758 57.5213 51.6505 56.2045C55.1727 54.7884 59.9969 52.8484 59.9969 45.0002C59.9969 42.7541 59.2612 40.298 57.855 37.8338L69.0236 26.6667H71.6669C72.2658 26.6667 72.8159 26.3461 73.1155 25.8269L79.7822 14.1602C80.153 13.5075 80.0423 12.6856 79.5117 12.155ZM26.6667 3.33328C28.5059 3.33328 30 4.82906 30 6.66656C30 8.50422 28.5059 10 26.6667 10C24.8275 10 23.3334 8.50422 23.3334 6.66672C23.3333 4.82906 24.8275 3.33328 26.6667 3.33328ZM11.735 22.71L10.6217 21.6L20.93 10.0047C21.5114 10.9997 22.3347 11.8227 23.3297 12.4039L11.735 22.71ZM70.6998 23.3333H68.3333C67.8906 23.3333 67.4673 23.5091 67.1548 23.8216L54.5703 36.4047C54.0105 36.963 53.9225 37.8353 54.3555 38.4961C55.8659 40.8023 56.6634 43.0517 56.6634 45C56.6634 50.5958 53.903 51.7058 50.4069 53.112C47.2558 54.38 43.3333 55.957 43.3333 61.6667C43.3333 68.5092 41.0187 76.6667 30 76.6667C20.8398 76.6667 10 65.8253 10 56.6667C10 45.6478 18.1575 43.3317 25 43.3302C30.7097 43.3302 32.2884 39.4092 33.5547 36.2566C34.9577 32.7638 36.0677 30.0033 41.6634 30.0033H41.6667C43.6166 30.0033 45.8627 30.8008 48.1706 32.3113C48.8217 32.7425 49.7006 32.6514 50.2605 32.0948L62.8452 19.5119C63.1577 19.1994 63.3334 18.7763 63.3334 18.3334V15.9669L73.0534 10.4119L76.2533 13.6117L70.6998 23.3333Z" fill="#FF974A"/>
<path d="M22.845 57.1549C22.1939 56.5039 21.1393 56.5039 20.4883 57.1549C19.8372 57.806 19.8372 58.8607 20.4883 59.5117L27.155 66.1784C27.4805 66.5039 27.9071 66.6667 28.3335 66.6667C28.7599 66.6667 29.1863 66.5039 29.5119 66.1784C30.163 65.5273 30.163 64.4726 29.5119 63.8217L22.845 57.1549Z" fill="#FF974A"/>
</g>
<defs>
<clipPath id="clip0">
<rect width="80" height="80" fill="white"/>
</clipPath>
</defs>
</svg>
