<svg width="24" height="24" viewBox="0 0 24 24" fill="none" xmlns="http://www.w3.org/2000/svg">
<path d="M21.1875 7.26562H20.25V3.75C20.25 1.68219 18.5678 0 16.5 0H7.5C5.43219 0 3.75 1.68219 3.75 3.75V7.26562H2.8125C1.2616 7.26562 0 8.52722 0 10.0781V15.5625C0 17.1134 1.2616 18.375 2.8125 18.375H11.0625V22.125H6.375V24H17.625V22.125H12.9375V18.375H21.1875C22.7384 18.375 24 17.1134 24 15.5625V10.0781C24 8.52722 22.7384 7.26562 21.1875 7.26562ZM18.375 16.5H5.625V15.4688C5.625 14.9518 6.04559 14.5312 6.5625 14.5312H17.4375C17.9544 14.5312 18.375 14.9518 18.375 15.4688V16.5ZM7.5 1.875H16.5C17.5338 1.875 18.375 2.71619 18.375 3.75V12.8176C18.0815 12.7134 17.7662 12.6562 17.4375 12.6562H6.5625C6.23383 12.6562 5.91852 12.7134 5.625 12.8176V3.75C5.625 2.71619 6.46619 1.875 7.5 1.875ZM1.875 15.5625V10.0781C1.875 9.56122 2.29559 9.14062 2.8125 9.14062H3.75V16.5H2.8125C2.29559 16.5 1.875 16.0794 1.875 15.5625ZM22.125 15.5625C22.125 16.0794 21.7044 16.5 21.1875 16.5H20.25V9.14062H21.1875C21.7044 9.14062 22.125 9.56122 22.125 10.0781V15.5625Z" fill="#FF5959"/>
</svg>
