<svg width="16" height="16" viewBox="0 0 16 16" fill="none" xmlns="http://www.w3.org/2000/svg">
<path fill-rule="evenodd" clip-rule="evenodd" d="M3.1221 11.7581C0.737296 9.37326 0.737296 5.50673 3.1221 3.12193C5.5069 0.737128 9.37343 0.737128 11.7582 3.12193C13.9381 5.30177 14.1254 8.71958 12.3203 11.1122L14.7297 13.5217C15.3583 14.1502 14.4154 15.093 13.7869 14.4645L13.7869 14.4645L13.7869 14.4645L11.4062 12.0838C9.007 14.1374 5.39285 14.0288 3.1221 11.7581ZM10.8154 4.06474C8.95132 2.20064 5.92901 2.20064 4.06491 4.06474C2.2008 5.92884 2.2008 8.95115 4.06491 10.8153C5.92901 12.6794 8.95132 12.6794 10.8154 10.8153C12.6795 8.95115 12.6795 5.92884 10.8154 4.06474Z" fill="#B5B5BE"/>
</svg>
