<svg width="20" height="20" viewBox="0 0 20 20" fill="none" xmlns="http://www.w3.org/2000/svg">
<path fill-rule="evenodd" clip-rule="evenodd" d="M7.07906 4.83335C7.03725 5.25446 6.68195 5.58335 6.24984 5.58335C5.81772 5.58335 5.46243 5.25446 5.42062 4.83335H3.33317V6.16668H16.6665V4.83335H15.3291C15.2872 5.25446 14.9319 5.58335 14.4998 5.58335C14.0677 5.58335 13.7124 5.25446 13.6706 4.83335H7.07906ZM7.07905 4.83335H13.6706H7.07905ZM5.4165 3.16669V2.50002C5.4165 2.03978 5.7896 1.66669 6.24984 1.66669C6.71007 1.66669 7.08317 2.03978 7.08317 2.50002V3.16669H13.6665V2.50002C13.6665 2.03978 14.0396 1.66669 14.4998 1.66669C14.9601 1.66669 15.3332 2.03978 15.3332 2.50002V3.16669H16.7498C17.6243 3.16669 18.3332 3.87557 18.3332 4.75002V15.8334C18.3332 17.2141 17.2139 18.3334 15.8332 18.3334H4.1665C2.78579 18.3334 1.6665 17.2141 1.6665 15.8334V4.75002C1.6665 3.87557 2.37539 3.16669 3.24984 3.16669H5.4165ZM16.6665 7.83337H3.33317V15.8334C3.33317 16.2936 3.70627 16.6667 4.1665 16.6667H15.8332C16.2934 16.6667 16.6665 16.2936 16.6665 15.8334V7.83337ZM5.49982 10.8334C5.03958 10.8334 4.66649 10.4603 4.66649 10C4.66649 9.53978 5.03958 9.16669 5.49982 9.16669H8.49982C8.96006 9.16669 9.33315 9.53978 9.33315 10C9.33315 10.4603 8.96006 10.8334 8.49982 10.8334H5.49982ZM5.49982 13.8333C5.03958 13.8333 4.66649 13.4602 4.66649 13C4.66649 12.5398 5.03958 12.1667 5.49982 12.1667H11.4998C11.9601 12.1667 12.3332 12.5398 12.3332 13C12.3332 13.4602 11.9601 13.8333 11.4998 13.8333H5.49982Z" fill="#92929D"/>
</svg>
