<svg width="16" height="16" viewBox="0 0 16 16" fill="none" xmlns="http://www.w3.org/2000/svg">
<path fill-rule="evenodd" clip-rule="evenodd" d="M4.00016 7.99999H4.66683C6.13959 7.99999 7.3335 9.1939 7.3335 10.6667V12C7.3335 13.4728 6.13959 14.6667 4.66683 14.6667H4.00016C2.5274 14.6667 1.3335 13.4728 1.3335 12V10.6667C1.3335 9.1939 2.5274 7.99999 4.00016 7.99999ZM4.00016 9.33333C3.26378 9.33333 2.66683 9.93028 2.66683 10.6667V12C2.66683 12.7364 3.26378 13.3333 4.00016 13.3333H4.66683C5.40321 13.3333 6.00016 12.7364 6.00016 12V10.6667C6.00016 9.93028 5.40321 9.33333 4.66683 9.33333H4.00016ZM3.66683 1.33333C4.95549 1.33333 6.00016 2.378 6.00016 3.66666V4.33333C6.00016 5.62199 4.95549 6.66666 3.66683 6.66666C2.37816 6.66666 1.3335 5.62199 1.3335 4.33333V3.66666C1.3335 2.378 2.37816 1.33333 3.66683 1.33333ZM3.66683 2.66666C3.11454 2.66666 2.66683 3.11438 2.66683 3.66666V4.33333C2.66683 4.88561 3.11454 5.33333 3.66683 5.33333C4.21911 5.33333 4.66683 4.88561 4.66683 4.33333V3.66666C4.66683 3.11438 4.21911 2.66666 3.66683 2.66666ZM11.3335 7.33333H12.0002C13.4729 7.33333 14.6668 8.52724 14.6668 10V12C14.6668 13.4728 13.4729 14.6667 12.0002 14.6667H11.3335C9.86074 14.6667 8.66683 13.4728 8.66683 12V10C8.66683 8.52724 9.86074 7.33333 11.3335 7.33333ZM11.3335 8.66666C10.5971 8.66666 10.0002 9.26362 10.0002 10V12C10.0002 12.7364 10.5971 13.3333 11.3335 13.3333H12.0002C12.7365 13.3333 13.3335 12.7364 13.3335 12V10C13.3335 9.26362 12.7365 8.66666 12.0002 8.66666H11.3335ZM9.66683 1.33333H12.3335C13.6222 1.33333 14.6668 2.378 14.6668 3.66666C14.6668 4.95533 13.6222 5.99999 12.3335 5.99999H9.66683C8.37817 5.99999 7.3335 4.95533 7.3335 3.66666C7.3335 2.378 8.37817 1.33333 9.66683 1.33333ZM9.66683 2.66666C9.11454 2.66666 8.66683 3.11438 8.66683 3.66666C8.66683 4.21895 9.11454 4.66666 9.66683 4.66666H12.3335C12.8858 4.66666 13.3335 4.21895 13.3335 3.66666C13.3335 3.11438 12.8858 2.66666 12.3335 2.66666H9.66683Z" fill="#B5B5BE"/>
</svg>
