<svg width="70" height="70" viewBox="0 0 70 70" fill="none" xmlns="http://www.w3.org/2000/svg">
<g filter="url(#filter0_d)">
<rect x="15" y="5" width="40" height="40" rx="10" fill="white"/>
</g>
<g clip-path="url(#clip0)">
<path d="M44.0211 19.4054V15.5665C44.0211 15.3862 43.9331 15.2144 43.7906 15.1096C43.644 15.0049 43.4554 14.9713 43.2835 15.0258L31.8464 18.6594C31.6117 18.7348 31.4524 18.9528 31.4524 19.2V23.0431V23.0473V30.3941C30.8531 29.9792 30.0862 29.7529 29.2815 29.7529C28.4307 29.7529 27.6219 30.0085 27.0058 30.4696C26.3436 30.9683 25.979 31.643 25.979 32.3764C25.979 33.1099 26.3436 33.7846 27.0058 34.2833C27.6219 34.7444 28.4265 35 29.2815 35C30.1365 35 30.9411 34.7444 31.5572 34.2833C32.2194 33.7846 32.584 33.1099 32.584 32.3764V23.4581L42.8896 20.1807V26.7438C42.2903 26.3289 41.5233 26.1026 40.7187 26.1026C39.8679 26.1026 39.059 26.3582 38.443 26.8192C37.7808 27.3179 37.4162 27.9927 37.4162 28.7261C37.4162 29.4595 37.7808 30.1343 38.443 30.633C39.059 31.094 39.8637 31.3497 40.7187 31.3497C41.5736 31.3497 42.3783 31.094 42.9944 30.633C43.6565 30.1343 44.0211 29.4595 44.0211 28.7261V19.4096C44.0211 19.4054 44.0211 19.4054 44.0211 19.4054ZM29.2815 33.8684C28.1038 33.8684 27.1106 33.1853 27.1106 32.3764C27.1106 31.5676 28.1038 30.8845 29.2815 30.8845C30.4592 30.8845 31.4524 31.5676 31.4524 32.3764C31.4524 33.1895 30.4592 33.8684 29.2815 33.8684ZM32.584 22.2678V19.6107L42.8896 16.3376V18.9947L32.584 22.2678ZM40.7229 30.2181C39.5452 30.2181 38.5519 29.535 38.5519 28.7261C38.5519 27.9173 39.5452 27.2341 40.7229 27.2341C41.9005 27.2341 42.8938 27.9173 42.8938 28.7261C42.8896 29.535 41.8963 30.2181 40.7229 30.2181Z" fill="#0062FF"/>
</g>
<defs>
<filter id="filter0_d" x="0" y="0" width="70" height="70" filterUnits="userSpaceOnUse" color-interpolation-filters="sRGB">
<feFlood flood-opacity="0" result="BackgroundImageFix"/>
<feColorMatrix in="SourceAlpha" type="matrix" values="0 0 0 0 0 0 0 0 0 0 0 0 0 0 0 0 0 0 127 0"/>
<feOffset dy="10"/>
<feGaussianBlur stdDeviation="7.5"/>
<feColorMatrix type="matrix" values="0 0 0 0 0 0 0 0 0 0 0 0 0 0 0 0 0 0 0.05 0"/>
<feBlend mode="normal" in2="BackgroundImageFix" result="effect1_dropShadow"/>
<feBlend mode="normal" in="SourceGraphic" in2="effect1_dropShadow" result="shape"/>
</filter>
<clipPath id="clip0">
<rect width="20" height="20" fill="white" transform="translate(25 15)"/>
</clipPath>
</defs>
</svg>
