<svg width="94" height="31" viewBox="0 0 94 31" fill="none" xmlns="http://www.w3.org/2000/svg">
<path d="M35.2 23.14C34.2267 23.14 33.3467 22.9733 32.56 22.64C31.7867 22.3067 31.1733 21.8267 30.72 21.2C30.2667 20.5733 30.0333 19.8333 30.02 18.98H33.02C33.06 19.5533 33.26 20.0067 33.62 20.34C33.9933 20.6733 34.5 20.84 35.14 20.84C35.7933 20.84 36.3067 20.6867 36.68 20.38C37.0533 20.06 37.24 19.6467 37.24 19.14C37.24 18.7267 37.1133 18.3867 36.86 18.12C36.6067 17.8533 36.2867 17.6467 35.9 17.5C35.5267 17.34 35.0067 17.1667 34.34 16.98C33.4333 16.7133 32.6933 16.4533 32.12 16.2C31.56 15.9333 31.0733 15.54 30.66 15.02C30.26 14.4867 30.06 13.78 30.06 12.9C30.06 12.0733 30.2667 11.3533 30.68 10.74C31.0933 10.1267 31.6733 9.66 32.42 9.34C33.1667 9.00667 34.02 8.84 34.98 8.84C36.42 8.84 37.5867 9.19333 38.48 9.9C39.3867 10.5933 39.8867 11.5667 39.98 12.82H36.9C36.8733 12.34 36.6667 11.9467 36.28 11.64C35.9067 11.32 35.4067 11.16 34.78 11.16C34.2333 11.16 33.7933 11.3 33.46 11.58C33.14 11.86 32.98 12.2667 32.98 12.8C32.98 13.1733 33.1 13.4867 33.34 13.74C33.5933 13.98 33.9 14.18 34.26 14.34C34.6333 14.4867 35.1533 14.66 35.82 14.86C36.7267 15.1267 37.4667 15.3933 38.04 15.66C38.6133 15.9267 39.1067 16.3267 39.52 16.86C39.9333 17.3933 40.14 18.0933 40.14 18.96C40.14 19.7067 39.9467 20.4 39.56 21.04C39.1733 21.68 38.6067 22.1933 37.86 22.58C37.1133 22.9533 36.2267 23.14 35.2 23.14ZM57.9275 11.92L54.6875 23H51.6675L49.6475 15.26L47.6275 23H44.5875L41.3275 11.92H44.1675L46.1275 20.36L48.2475 11.92H51.2075L53.2875 20.34L55.2475 11.92H57.9275ZM58.7225 17.42C58.7225 16.3 58.9425 15.3067 59.3825 14.44C59.8358 13.5733 60.4425 12.9067 61.2025 12.44C61.9758 11.9733 62.8358 11.74 63.7825 11.74C64.6092 11.74 65.3292 11.9067 65.9425 12.24C66.5692 12.5733 67.0692 12.9933 67.4425 13.5V11.92H70.2625V23H67.4425V21.38C67.0825 21.9 66.5825 22.3333 65.9425 22.68C65.3158 23.0133 64.5892 23.18 63.7625 23.18C62.8292 23.18 61.9758 22.94 61.2025 22.46C60.4425 21.98 59.8358 21.3067 59.3825 20.44C58.9425 19.56 58.7225 18.5533 58.7225 17.42ZM67.4425 17.46C67.4425 16.78 67.3092 16.2 67.0425 15.72C66.7758 15.2267 66.4158 14.8533 65.9625 14.6C65.5092 14.3333 65.0225 14.2 64.5025 14.2C63.9825 14.2 63.5025 14.3267 63.0625 14.58C62.6225 14.8333 62.2625 15.2067 61.9825 15.7C61.7158 16.18 61.5825 16.7533 61.5825 17.42C61.5825 18.0867 61.7158 18.6733 61.9825 19.18C62.2625 19.6733 62.6225 20.0533 63.0625 20.32C63.5158 20.5867 63.9958 20.72 64.5025 20.72C65.0225 20.72 65.5092 20.5933 65.9625 20.34C66.4158 20.0733 66.7758 19.7 67.0425 19.22C67.3092 18.7267 67.4425 18.14 67.4425 17.46ZM75.7972 13.64C76.1572 13.0533 76.6239 12.5933 77.1972 12.26C77.7839 11.9267 78.4505 11.76 79.1972 11.76V14.7H78.4572C77.5772 14.7 76.9105 14.9067 76.4572 15.32C76.0172 15.7333 75.7972 16.4533 75.7972 17.48V23H72.9972V11.92H75.7972V13.64ZM80.3631 17.42C80.3631 16.3 80.5831 15.3067 81.0231 14.44C81.4765 13.5733 82.0831 12.9067 82.8431 12.44C83.6165 11.9733 84.4765 11.74 85.4231 11.74C86.2498 11.74 86.9698 11.9067 87.5831 12.24C88.2098 12.5733 88.7098 12.9933 89.0831 13.5V11.92H91.9031V23H89.0831V21.38C88.7231 21.9 88.2231 22.3333 87.5831 22.68C86.9565 23.0133 86.2298 23.18 85.4031 23.18C84.4698 23.18 83.6165 22.94 82.8431 22.46C82.0831 21.98 81.4765 21.3067 81.0231 20.44C80.5831 19.56 80.3631 18.5533 80.3631 17.42ZM89.0831 17.46C89.0831 16.78 88.9498 16.2 88.6831 15.72C88.4165 15.2267 88.0565 14.8533 87.6031 14.6C87.1498 14.3333 86.6631 14.2 86.1431 14.2C85.6231 14.2 85.1431 14.3267 84.7031 14.58C84.2631 14.8333 83.9031 15.2067 83.6231 15.7C83.3565 16.18 83.2231 16.7533 83.2231 17.42C83.2231 18.0867 83.3565 18.6733 83.6231 19.18C83.9031 19.6733 84.2631 20.0533 84.7031 20.32C85.1565 20.5867 85.6365 20.72 86.1431 20.72C86.6631 20.72 87.1498 20.5933 87.6031 20.34C88.0565 20.0733 88.4165 19.7 88.6831 19.22C88.9498 18.7267 89.0831 18.14 89.0831 17.46Z" fill="#44444F"/>
<g clip-path="url(#clip0)">
<path d="M18.8399 4.01448L1.5235 0.429129C0.967148 0.313934 0.445312 0.738739 0.445312 1.30692V25.518C0.445312 25.943 0.743789 26.3096 1.15998 26.3958L18.4764 29.9811C19.0328 30.0963 19.5546 29.6714 19.5546 29.1033V4.89227C19.5546 4.46723 19.2561 4.10061 18.8399 4.01448ZM10.9259 21.2343V21.5413C10.9259 23.7819 9.27328 24.9542 7.6408 24.9542C6.78381 24.9542 5.97908 24.6449 5.37486 24.0833C4.90055 23.6424 4.33512 22.8436 4.33512 21.5412C4.33512 21.0431 4.73895 20.6392 5.23711 20.6392C5.73527 20.6392 6.1391 21.0431 6.1391 21.5412C6.1391 22.7288 6.94805 23.1501 7.64074 23.1501C8.324 23.1501 9.12182 22.7288 9.12182 21.5412V21.2382C8.01445 21.0934 7.06435 20.6755 6.34025 20.0085C5.52211 19.2547 5.01744 18.1963 4.9193 17.0282C4.81904 15.8354 5.13557 14.6374 5.81051 13.6547C6.54791 12.5811 7.66025 11.8702 8.94252 11.6531C9.0031 11.6429 9.06275 11.6321 9.12182 11.6207V5.95897C9.12182 5.63061 9.30029 5.32815 9.58775 5.16942C9.87521 5.01063 10.2262 5.02065 10.5042 5.19555C12.8135 6.6485 13.941 8.46842 13.5977 10.1886C13.352 11.4196 12.4049 12.3905 10.9259 12.9752V13.9913C11.0797 13.999 11.2338 14.0146 11.3873 14.0383C13.27 14.329 14.5349 15.691 14.5349 17.4278C14.535 19.0992 13.3985 20.8851 10.9259 21.2343Z" fill="#0073FF"/>
<path d="M11.8285 9.83563C11.9508 9.22304 11.6235 8.51019 10.9258 7.80472V10.969C11.4262 10.6559 11.742 10.2687 11.8285 9.83563Z" fill="#0073FF"/>
<path d="M6.717 16.8771C6.76253 17.4192 7.0729 19.045 9.12187 19.4156V16.4801C9.03585 16.5981 8.97222 16.7239 8.93196 16.8511C8.78179 17.3261 8.27519 17.5895 7.79999 17.4392C7.32503 17.289 7.06177 16.7822 7.21194 16.3072C7.48247 15.4516 8.09718 14.7616 8.94269 14.3642C9.00151 14.3366 9.06128 14.3104 9.12187 14.2858V13.4554C7.81792 13.7379 6.5595 15.003 6.717 16.8771Z" fill="#0073FF"/>
<path d="M11.1121 15.8212C11.0487 15.8114 10.9866 15.8038 10.9258 15.7981V19.3943C11.8825 19.1797 12.7308 18.5896 12.7308 17.4278C12.7308 16.1365 11.3823 15.8629 11.1121 15.8212Z" fill="#0073FF"/>
</g>
<defs>
<clipPath id="clip0">
<rect width="30" height="30" fill="white" transform="translate(-5)"/>
</clipPath>
</defs>
</svg>
